<svg width="1768" height="941" viewBox="0 0 1768 941" fill="none" xmlns="http://www.w3.org/2000/svg">
<path d="M883.973 181.62C917.571 181.873 935.087 145.555 943.045 131.145C951.004 116.735 970.316 67.5413 970.316 67.5413C996.235 -4.16113 1031.33 0.0464187 1031.33 0.0464187C1068.72 -0.665386 1092.05 66.8137 1092.05 66.8137C1102.81 94.5582 1122.07 135.859 1122.07 135.859C1146.86 184.135 1178.69 181.62 1178.69 181.62H1180.36C1213.72 181.873 1231.14 145.555 1239.03 131.145C1246.94 116.735 1266.14 67.5413 1266.14 67.5413C1291.89 -4.16113 1326.78 0.0464187 1326.78 0.0464187C1363.93 -0.665386 1387.1 66.8137 1387.1 66.8137C1397.79 94.5582 1416.92 135.859 1416.92 135.859C1441.56 184.135 1473.18 181.62 1473.18 181.62H1476.97C1507.25 179.785 1527.42 145.555 1535.28 131.145C1543.14 116.735 1562.21 67.5413 1562.21 67.5413C1587.8 -4.16113 1622.45 0.0464187 1622.45 0.0464187C1659.36 -0.665386 1682.39 66.8137 1682.39 66.8137C1693.02 94.5582 1712.04 135.859 1712.04 135.859C1740.28 189.671 1767.93 181.62 1767.93 181.62V192.487V940.1H0V181.62C33.5978 181.873 51.1135 145.555 59.0722 131.145C67.0308 116.735 86.3426 67.5413 86.3426 67.5413C112.262 -4.16113 147.376 0.0464187 147.376 0.0464187C184.763 -0.665386 208.095 66.8137 208.095 66.8137C218.855 94.5582 238.118 135.859 238.118 135.859C262.9 184.135 294.735 181.62 294.735 181.62H296.893C330.343 181.873 347.792 145.555 355.718 131.145C363.644 116.735 382.89 67.5413 382.89 67.5413C408.694 -4.16113 443.676 0.0464187 443.676 0.0464187C480.915 -0.665386 504.148 66.8137 504.148 66.8137C514.875 94.5582 534.055 135.859 534.055 135.859C558.739 184.135 590.441 181.62 590.441 181.62H592.946C623.232 179.785 643.417 145.555 651.26 131.145C659.104 116.735 678.201 67.5413 678.201 67.5413C703.791 -4.16113 738.46 0.0464187 738.46 0.0464187C775.386 -0.665386 798.422 66.8137 798.422 66.8137C809.05 94.5582 828.065 135.859 828.065 135.859C847.245 181.651 878.552 181.62 878.552 181.62" fill="url(#paint0_linear_302_690)"/>
<defs>
<linearGradient id="paint0_linear_302_690" x1="849.788" y1="-0.000725761" x2="849.788" y2="558.073" gradientUnits="userSpaceOnUse">
<stop stop-color="#7B7B7B"/>
<stop offset="0.108" stop-color="#939393"/>
<stop offset="0.335" stop-color="#CDCDCD"/>
<stop offset="0.5111" stop-color="#D8D8D8"/>
<stop offset="1" stop-color="white"/>
</linearGradient>
</defs>
</svg>
